<svg width="1526" height="1377" xmlns="http://www.w3.org/2000/svg" xmlns:xlink="http://www.w3.org/1999/xlink" xml:space="preserve" overflow="hidden"><defs><clipPath id="clip0"><rect x="1437" y="549" width="1526" height="1377"/></clipPath><linearGradient x1="1546.9" y1="1121.98" x2="2839.1" y2="1868.02" gradientUnits="userSpaceOnUse" spreadMethod="reflect" id="fill1"><stop offset="0" stop-color="#51247A"/><stop offset="0.22" stop-color="#51247A"/><stop offset="0.5" stop-color="#1F0029"/><stop offset="1" stop-color="#51247A"/></linearGradient><linearGradient x1="-4.62834" y1="12.7163" x2="1414.63" y2="529.283" gradientUnits="userSpaceOnUse" spreadMethod="reflect" id="fill2"><stop offset="0" stop-color="#51247A"/><stop offset="0.22" stop-color="#51247A"/><stop offset="0.48" stop-color="#962A8B"/><stop offset="0.66" stop-color="#962A8B"/><stop offset="1" stop-color="#51247A"/></linearGradient><radialGradient cx="-0.125" cy="-0.125" r="3353282" fx="0" fy="0" gradientUnits="userSpaceOnUse" spreadMethod="pad" id="fill3" gradientTransform="matrix(0.000360892 0 0 0.000360892 1468 681)"><stop offset="0" stop-color="#51247A"/><stop offset="0.35" stop-color="#51247A"/><stop offset="0.51" stop-color="#962A8B"/><stop offset="0.63" stop-color="#51247A"/><stop offset="0.84" stop-color="#11081A"/><stop offset="1" stop-color="#51247A" stop-opacity="0.509804"/></radialGradient><linearGradient x1="2200" y1="1926" x2="2200" y2="549" gradientUnits="userSpaceOnUse" spreadMethod="reflect" id="fill4"><stop offset="0" stop-color="#D7D1CC"/><stop offset="0.35" stop-color="#F2F0EE"/><stop offset="0.9" stop-color="#F2F0EE"/><stop offset="1" stop-color="#F2F0EE"/></linearGradient></defs><g clip-path="url(#clip0)" transform="translate(-1437 -549)"><path d="M1488 1314.33C1488 1264.44 1528.44 1224 1578.33 1224L2807.67 1224C2857.56 1224 2898 1264.44 2898 1314.33L2898 1675.67C2898 1725.56 2857.56 1766 2807.67 1766L1578.33 1766C1528.44 1766 1488 1725.56 1488 1675.67Z" fill="url(#fill1)" fill-rule="evenodd"/><path d="M0 90.3348C-1.12195e-14 40.4443 40.4442-3.36585e-14 90.3347-4.4878e-14L1319.67 0C1369.56-1.12195e-14 1410 40.4443 1410 90.3348L1410 451.665C1410 501.555 1369.56 542 1319.67 542L90.3347 542C40.4442 542-1.12195e-14 501.555 0 451.665Z" fill="url(#fill2)" fill-rule="evenodd" transform="matrix(1 0 0 -1 1488 1238)"/><path d="M1468 770.336C1468 720.997 1508 681 1557.34 681L1914.66 681C1964 681 2004 720.997 2004 770.336L2004 1676.66C2004 1726 1964 1766 1914.66 1766L1557.34 1766C1508 1766 1468 1726 1468 1676.66Z" fill="url(#fill3)" fill-rule="evenodd"/><path d="M2180.05 1261.75 2180.05 1299.64 2249.6 1299.64C2256.8 1299.64 2261.53 1300.72 2263.82 1302.89 2266.11 1305.06 2267.25 1309.16 2267.25 1315.21L2267.25 1424.72C2267.25 1446.87 2270.59 1463.18 2277.26 1473.67 2282.27 1481.53 2288.55 1487.41 2296.12 1491.31L2298.98 1492.47 2296.05 1493.65C2288.43 1497.55 2282.14 1503.4 2277.18 1511.19 2270.56 1521.59 2267.25 1537.74 2267.25 1559.66L2267.25 1669.17C2267.25 1675.51 2266.1 1679.78 2263.79 1681.97 2261.47 1684.16 2256.75 1685.25 2249.6 1685.25L2180.05 1685.25 2180.05 1723.14 2249.6 1723.14C2267.01 1723.14 2280.27 1721.11 2289.38 1717.03 2298.49 1712.96 2304.61 1706.45 2307.73 1697.48 2310.85 1688.51 2312.41 1677.52 2312.41 1664.49L2312.41 1554.99C2312.41 1538.32 2315.13 1527.05 2320.56 1521.17 2326 1515.29 2339.54 1511.97 2361.2 1511.21L2361.2 1473.75C2339.65 1473 2326.13 1469.65 2320.64 1463.72 2315.15 1457.78 2312.41 1446.34 2312.41 1429.39L2312.41 1319.88C2312.41 1307.02 2310.87 1296.16 2307.79 1287.32 2304.71 1278.47 2298.58 1272 2289.41 1267.9 2280.23 1263.8 2266.97 1261.75 2249.6 1261.75ZM2099.47 1261.75C2082.46 1261.75 2069.27 1263.8 2059.89 1267.91 2050.5 1272.01 2044.29 1278.45 2041.24 1287.21 2038.19 1295.98 2036.66 1306.86 2036.66 1319.88L2036.66 1429.39C2036.66 1446.28 2033.91 1457.71 2028.39 1463.67 2022.88 1469.63 2009.37 1472.99 1987.87 1473.75L1987.87 1511.22C2009.47 1511.98 2023 1515.31 2028.46 1521.21 2033.93 1527.12 2036.66 1538.38 2036.66 1554.99L2036.66 1664.49C2036.66 1677.68 2038.21 1688.71 2041.3 1697.59 2044.39 1706.47 2050.59 1712.95 2059.91 1717.03 2069.23 1721.1 2082.41 1723.14 2099.47 1723.14L2169.02 1723.14 2169.02 1685.25 2099.47 1685.25C2092.27 1685.25 2087.53 1684.17 2085.25 1682.01 2082.96 1679.84 2081.82 1675.56 2081.82 1669.17L2081.82 1559.66C2081.82 1537.83 2078.5 1521.69 2071.86 1511.26 2066.87 1503.43 2060.59 1497.57 2053 1493.67L2050.01 1492.47 2052.92 1491.29C2060.46 1487.39 2066.74 1481.5 2071.77 1473.6 2078.47 1463.07 2081.82 1446.78 2081.82 1424.72L2081.82 1315.21C2081.82 1309.11 2082.95 1305 2085.21 1302.85 2087.48 1300.71 2092.23 1299.64 2099.47 1299.64L2169.02 1299.64 2169.02 1261.75ZM2428.17 1259.4 2428.17 1718.59 2525.79 1718.59 2525.79 1407.88 2528.54 1407.88 2665.34 1718.59 2792.52 1718.59 2792.52 1259.4 2694.9 1259.4 2694.9 1570.11 2692.15 1570.11 2554.66 1259.4ZM1751.01 1251.15C1718.01 1251.15 1687.42 1256.88 1659.24 1268.33 1631.05 1279.79 1608.25 1296.06 1590.83 1317.14 1573.42 1338.22 1564.71 1363.2 1564.71 1392.07 1564.71 1417.73 1570.32 1439.73 1581.55 1458.06 1592.78 1476.39 1608.94 1491.29 1630.02 1502.74 1651.1 1514.2 1676.08 1522.68 1704.95 1528.18L1740.7 1535.05C1766.37 1539.64 1785.39 1545.82 1797.76 1553.61 1810.14 1561.4 1816.32 1572.4 1816.32 1586.61 1816.32 1597.15 1812.77 1605.97 1805.67 1613.07 1798.56 1620.18 1789.97 1625.33 1779.89 1628.54 1769.8 1631.75 1759.72 1633.35 1749.64 1633.35 1735.43 1633.35 1722.14 1630.72 1709.77 1625.45 1697.39 1620.18 1686.85 1612.85 1678.14 1603.45 1669.43 1594.06 1663.48 1583.17 1660.27 1570.8L1553.71 1609.29C1563.33 1633.58 1577.31 1654.55 1595.65 1672.19 1613.98 1689.84 1635.98 1703.36 1661.64 1712.75 1687.31 1722.15 1715.95 1726.84 1747.58 1726.84 1780.57 1726.84 1811.17 1720.43 1839.35 1707.59 1867.54 1694.76 1890.22 1676.78 1907.41 1653.63 1924.6 1630.49 1933.19 1603.11 1933.19 1571.49 1933.19 1543.53 1926.43 1520.85 1912.91 1503.43 1899.39 1486.02 1880.71 1472.04 1856.88 1461.5 1833.05 1450.96 1805.55 1442.71 1774.39 1436.75L1729.7 1427.82C1713.66 1424.61 1701.63 1419.45 1693.61 1412.35 1685.59 1405.25 1681.58 1396.65 1681.58 1386.57 1681.58 1377.86 1684.21 1370.42 1689.48 1364.23 1694.76 1358.04 1701.97 1353.23 1711.14 1349.79 1720.31 1346.36 1730.62 1344.64 1742.08 1344.64 1753.99 1344.64 1764.88 1346.47 1774.73 1350.14 1784.58 1353.8 1793.29 1359.19 1800.85 1366.29 1808.42 1373.4 1814.03 1381.99 1817.7 1392.07L1922.88 1353.57C1913.25 1329.29 1899.28 1309.58 1880.94 1294.46 1862.61 1279.33 1842.1 1268.33 1819.42 1261.46 1796.73 1254.59 1773.93 1251.15 1751.01 1251.15ZM2263.86 1044.81 2263.86 1079.86C2263.86 1103.99 2259.16 1123.31 2249.77 1137.83 2240.37 1152.35 2227.66 1162.81 2211.62 1169.23 2195.58 1175.64 2177.48 1178.85 2157.31 1178.85 2133.26 1178.85 2114.87 1174.03 2102.15 1164.38 2089.42 1154.74 2083.06 1142.15 2083.06 1126.61 2083.06 1101.67 2098.2 1082.82 2128.48 1070.06 2158.76 1057.3 2203.89 1048.88 2263.86 1044.81ZM2646.09 859.891C2608.49 859.891 2576.16 868.271 2549.1 885.03 2522.04 901.789 2501.54 924.356 2487.59 952.73 2473.64 981.104 2466.66 1012.48 2466.66 1046.87 2466.66 1081.98 2473.94 1113.25 2488.48 1140.65 2503.02 1168.06 2523.53 1189.76 2550.01 1205.74 2576.49 1221.73 2607.37 1229.72 2642.66 1229.72 2667.75 1229.72 2690.23 1226.01 2710.1 1218.59 2729.97 1211.18 2746.68 1201.52 2760.25 1189.61 2773.82 1177.71 2784.57 1163 2792.52 1145.47L2739.64 1125.92C2730.12 1142.68 2717.01 1155.23 2700.31 1163.58 2683.62 1171.93 2664.63 1176.1 2643.34 1176.1 2623.35 1176.1 2604.78 1171.6 2587.64 1162.6 2570.49 1153.6 2556.36 1139.5 2545.23 1120.3 2534.1 1101.1 2528.54 1076.16 2528.54 1045.49 2528.54 1014.57 2534.05 989.494 2545.08 970.254 2556.11 951.013 2570.59 936.746 2588.53 927.451 2606.48 918.156 2625.43 913.509 2645.41 913.509 2666.12 913.509 2684.29 917.686 2699.93 926.039 2715.57 934.391 2728.09 947.63 2737.48 965.753L2789.77 946.763C2775.95 918.228 2756.75 896.616 2732.19 881.926 2707.63 867.236 2678.93 859.891 2646.09 859.891ZM2183.43 859.891C2149.61 859.891 2120.11 867.391 2094.95 882.393 2069.79 897.395 2052.07 921.264 2041.81 954.003L2099.75 968.503C2104.6 949.663 2113.82 935.33 2127.42 925.502 2141.01 915.674 2159.45 910.76 2182.74 910.76 2211.73 910.76 2232.5 918.182 2245.04 933.026 2257.59 947.87 2263.86 968.632 2263.86 995.312L2263.86 996.558C2185.84 1002.29 2125.88 1014.92 2084 1034.42 2042.13 1053.93 2021.19 1085.58 2021.19 1129.36 2021.19 1162.03 2033.29 1186.93 2057.5 1204.05 2081.72 1221.16 2112.46 1229.72 2149.74 1229.72 2186.91 1229.72 2215.96 1223.11 2236.88 1209.88 2257.81 1196.65 2269.9 1182.64 2273.14 1167.85L2283.1 1221.47 2336.05 1221.47C2332.76 1201.67 2329.88 1181.3 2327.39 1160.34 2324.91 1139.39 2323.67 1113.25 2323.67 1081.93L2323.67 998.749C2323.67 953.781 2312.14 919.395 2289.06 895.594 2265.99 871.792 2230.78 859.891 2183.43 859.891ZM1816.32 749.217 1816.32 1060.62C1816.32 1079.67 1814.06 1095.22 1809.55 1107.25 1805.03 1119.28 1798.82 1128.74 1790.89 1135.63 1782.97 1142.51 1773.99 1147.31 1763.95 1150.03 1753.91 1152.75 1743.18 1154.11 1731.76 1154.11 1714.9 1154.11 1699.97 1150.96 1686.96 1144.67 1673.96 1138.38 1663.48 1128.47 1655.53 1114.93 1647.57 1101.4 1643.04 1082.15 1641.92 1057.18L1556.46 1084.03C1559.8 1117.33 1568.8 1144.44 1583.48 1165.37 1598.16 1186.3 1617.91 1202.26 1642.75 1213.25 1667.58 1224.23 1697.03 1229.72 1731.08 1229.72 1787.03 1229.72 1830.47 1214.98 1861.38 1185.51 1892.3 1156.03 1907.76 1114.4 1907.76 1060.62L1907.76 749.217ZM1666.52 549 2733.48 549C2860.24 549 2963 651.753 2963 778.505L2963 1696.5C2963 1823.25 2860.24 1926 2733.48 1926L1666.52 1926C1539.76 1926 1437 1823.25 1437 1696.5L1437 778.505C1437 651.753 1539.76 549 1666.52 549Z" fill="url(#fill4)" fill-rule="evenodd"/></g></svg>